<svg width="24" height="25" viewBox="0 0 24 25" fill="none" xmlns="http://www.w3.org/2000/svg">
<path fill-rule="evenodd" clip-rule="evenodd" d="M4.5 3.28101C3.67157 3.28101 3 3.95258 3 4.78101V19.781C3 20.6094 3.67157 21.281 4.5 21.281H19.5C20.3284 21.281 21 20.6094 21 19.781V4.78101C21 3.95258 20.3284 3.28101 19.5 3.28101H4.5ZM8.52076 7.28373C8.52639 8.23998 7.81061 8.8292 6.96123 8.82498C6.16107 8.82076 5.46357 8.18373 5.46779 7.28514C5.47201 6.43998 6.13998 5.76076 7.00764 5.78045C7.88795 5.80014 8.52639 6.44561 8.52076 7.28373ZM12.2797 10.0428H9.75971H9.7583V18.6026H12.4217V18.4029C12.4217 18.023 12.4214 17.643 12.4211 17.2629C12.4203 16.2491 12.4194 15.2342 12.4246 14.2207C12.426 13.9746 12.4372 13.7187 12.5005 13.4838C12.7381 12.6063 13.5271 12.0396 14.4074 12.1789C14.9727 12.2674 15.3467 12.5951 15.5042 13.1281C15.6013 13.4613 15.6449 13.8199 15.6491 14.1673C15.6605 15.2149 15.6589 16.2625 15.6573 17.3102C15.6567 17.68 15.6561 18.05 15.6561 18.4198V18.6012H18.328V18.3959C18.328 17.9439 18.3278 17.492 18.3275 17.0401C18.327 15.9106 18.3264 14.7811 18.3294 13.6512C18.3308 13.1407 18.276 12.6373 18.1508 12.1437C17.9638 11.4096 17.5771 10.8021 16.9485 10.3634C16.5027 10.0512 16.0133 9.85011 15.4663 9.82761C15.404 9.82502 15.3412 9.82163 15.2781 9.81822C14.9984 9.8031 14.7141 9.78774 14.4467 9.84167C13.6817 9.99495 13.0096 10.3451 12.5019 10.9624C12.4429 11.0332 12.3852 11.1051 12.2991 11.2124L12.2797 11.2367V10.0428ZM5.68164 18.6054H8.33242V10.0483H5.68164V18.6054Z" fill="#737373"/>
</svg>
